# xmcd CD database file
#
# Track frame offsets:
#	150
#	15202
#	38032
#	57112
#	74185
#	94200
#	107385
#	121292
#	151885
#	169327
#	189170
#	216882
#
# Disc length: 3084 seconds
#
# Revision: 0
# Processed by: cddbd v1.5.1PL0 Copyright (c) Steve Scherf et al.
# Submitted via: CDex 1.51
#
DISCID=980c0a0c
DTITLE=Album Jazz - L'album Jazz più bello del mondo 2
DYEAR=1900
DGENRE=Jazz
TTITLE0=Fever (Peggy Lee)
TTITLE1=Duke's place (L.Armstrong, Duke Ellington)
TTITLE2=A night in Tunisia (Bud Powell)
TTITLE3=The girl of ipanema (Lou Rawls)
TTITLE4=Friends (Bobby Mc Ferrin)
TTITLE5=Straight no chaser (Thelonius Monk)
TTITLE6=Mercy Mercy Mercy (Cannonbal Adderley)
TTITLE7=Reach out! I'll be there (Hank Mobley)
TTITLE8=La costa (Natalie Cole)
TTITLE9=Ornithology (Charlie Parker)
TTITLE10=Wait March (Sonny Rollins)
TTITLE11=Born to lose (Ella Fitzgerald)
EXTD=
EXTT0=
EXTT1=
EXTT2=
EXTT3=
EXTT4=
EXTT5=
EXTT6=
EXTT7=
EXTT8=
EXTT9=
EXTT10=
EXTT11=
PLAYORDER=
